<svg id="Layer_1" data-name="Layer 1" xmlns="http://www.w3.org/2000/svg" xmlns:xlink="http://www.w3.org/1999/xlink" viewBox="0 0 140.03 129.78"><defs><style>.cls-1{fill:url(#linear-gradient);}.cls-2{fill:#fff;}.cls-3{fill:#33377a;}</style><linearGradient id="linear-gradient" x1="68.32" y1="64.89" x2="185.78" y2="64.89" gradientTransform="matrix(-1, 0, 0, 1, 194.65, 0)" gradientUnits="userSpaceOnUse"><stop offset="0" stop-color="#b3e6ff"/><stop offset="0.33" stop-color="#b8e7ff"/><stop offset="0.72" stop-color="#c6ebff"/><stop offset="1" stop-color="#d5efff"/></linearGradient></defs><path class="cls-1" d="M44.88,106.12Q57.51,93.46,70.16,80.81l-4.88-4.6A46,46,0,0,1,53.56,54.37C50.19,38.56,55.6,20.5,69,9.69,79.65,1.1,91.53.12,96.38,0c4.85.12,16.73,1.1,27.37,9.69,13.41,10.81,18.82,28.87,15.44,44.68a45.87,45.87,0,0,1-11.71,21.84l-.06.06-57.2,53.51Z" transform="translate(-0.15)"/><circle class="cls-2" cx="96.98" cy="42.69" r="16.15"/><path class="cls-3" d="M95.48,106.15,70.16,80.81,75,76.21A46,46,0,0,0,86.76,54.37c3.37-15.81-2-33.87-15.44-44.68C60.67,1.1,48.79.12,43.94,0,39.09.12,27.21,1.1,16.56,9.69,3.16,20.5-2.25,38.56,1.13,54.37A45.87,45.87,0,0,0,12.84,76.21l.06.06,57.32,53.51Z" transform="translate(-0.15)"/><circle class="cls-2" cx="43.18" cy="42.69" r="16.15"/><path class="cls-2" d="M13.8,28" transform="translate(-0.15)"/></svg>